<svg width="333" height="333" xmlns="http://www.w3.org/2000/svg"><defs><linearGradient x1="50%" y1="0%" x2="50%" y2="100%" id="a"><stop stop-color="#FF9947" offset="0%"/><stop stop-color="#FF3D59" offset="100%"/></linearGradient></defs><g fill="none" fill-rule="evenodd"><rect fill="url(#a)" width="333" height="333" rx="40"/><g stroke="#FFF" stroke-width="9"><path d="M239 60c1.519 0 2.894.616 3.89 1.61a5.483 5.483 0 011.61 3.89h0v202a5.483 5.483 0 01-1.61 3.89A5.483 5.483 0 01239 273h0H94a5.483 5.483 0 01-3.89-1.61 5.483 5.483 0 01-1.61-3.89h0V128.713a10.5 10.5 0 013.075-7.424h0l58.214-58.214A10.5 10.5 0 01157.213 60h0z"/><path d="M151 63.5v56a3 3 0 01-3 3H92h0"/></g><path d="M171 226v-33h33a1 1 0 001-1v-7a1 1 0 00-1-1h-33v-33a1 1 0 00-1-1h-7a1 1 0 00-1 1v33h-33a1 1 0 00-1 1v7a1 1 0 001 1h33v33a1 1 0 001 1h7a1 1 0 001-1z" fill="#FFF" fill-rule="nonzero"/></g></svg>